<?xml version="1.0" standalone="no"?>
<!DOCTYPE svg PUBLIC "-//W3C//DTD SVG 20010904//EN"
 "http://www.w3.org/TR/2001/REC-SVG-20010904/DTD/svg10.dtd">
<svg version="1.0" xmlns="http://www.w3.org/2000/svg"
 width="500.000000pt" height="500.000000pt" viewBox="0 0 500.000000 500.000000"
 preserveAspectRatio="xMidYMid meet">
<metadata>
Created by potrace 1.11, written by Peter Selinger 2001-2013
</metadata>
<g transform="translate(0.000000,500.000000) scale(0.100000,-0.100000)"
fill="#000000" stroke="none">
<path d="M2065 4430 c-2 -3 -25 -7 -52 -8 -227 -11 -448 -72 -711 -198 -129
-61 -133 -64 -121 -86 38 -72 433 -796 444 -814 13 -20 14 -20 107 26 108 53
183 79 251 87 l47 6 0 -44 c1 -24 8 -62 16 -84 9 -22 19 -65 24 -95 4 -30 11
-67 15 -83 6 -23 2 -33 -29 -61 -51 -49 -96 -62 -163 -46 -107 24 -163 -8
-163 -91 0 -51 14 -99 32 -110 6 -4 28 -1 50 7 43 15 227 44 280 44 19 0 43 7
54 15 10 8 22 15 26 15 21 1 121 -240 106 -255 -2 -2 -33 2 -68 9 -36 8 -67
12 -69 10 -6 -6 -281 -905 -281 -919 0 -7 17 -16 38 -20 20 -4 43 -11 50 -17
11 -9 18 -98 8 -98 -2 0 -26 9 -52 20 -26 12 -50 17 -54 13 -4 -4 -58 -134
-120 -288 -217 -539 -194 -490 -229 -493 -35 -4 -42 -30 -16 -52 11 -9 14 -22
10 -40 -6 -27 -4 -28 97 -63 258 -90 511 -139 723 -141 110 0 401 37 418 54 8
7 -170 919 -184 941 -4 8 -27 8 -77 0 -39 -6 -116 -11 -171 -11 l-101 0 0 58
0 58 148 -2 c81 -1 187 3 235 10 l88 12 25 -33 25 -33 -24 -9 c-14 -6 -41 -13
-62 -17 -20 -3 -39 -12 -41 -19 -5 -11 201 -919 212 -937 6 -9 168 36 284 79
260 96 568 276 770 451 l35 30 -26 29 c-14 15 -72 82 -130 148 -57 66 -147
170 -201 231 -54 62 -98 114 -98 118 0 3 11 6 25 6 19 0 71 -52 245 -242 122
-134 225 -244 229 -246 5 -1 61 53 126 120 211 221 392 489 502 744 29 68 53
130 53 137 0 9 -165 73 -451 176 -247 90 -451 162 -453 160 -1 -2 -28 -58 -60
-123 -56 -119 -149 -270 -182 -297 -10 -8 5 20 33 61 223 331 284 750 166
1143 -14 48 -31 87 -38 87 -6 0 -110 -39 -231 -86 -317 -125 -294 -118 -294
-90 0 19 31 36 248 136 136 63 249 115 251 116 12 9 -139 245 -228 359 -147
186 -366 348 -581 431 -80 30 -279 84 -316 84 -6 0 -16 -47 -24 -117 -13 -116
-27 -190 -29 -149 -1 11 -10 38 -21 61 -17 36 -19 51 -12 124 5 45 6 84 2 86
-33 21 -323 34 -335 15z m159 -32 c3 -7 7 -28 10 -45 5 -33 5 -33 -33 -33 -37
0 -39 1 -43 38 -3 21 0 40 6 44 18 12 56 9 60 -4z m-114 -43 c0 -45 0 -45 -35
-45 -30 0 -35 3 -35 23 0 12 -3 32 -6 45 -6 20 -3 22 35 22 l41 0 0 -45z m251
41 c3 -3 3 -23 1 -46 -4 -41 -5 -41 -41 -38 -35 3 -36 4 -39 46 l-3 42 39 0
c21 0 41 -2 43 -4z m-369 -43 c5 -42 -5 -54 -42 -51 -20 3 -26 10 -31 40 -7
45 -5 48 37 48 29 0 32 -3 36 -37z m-118 5 c14 -54 8 -68 -28 -68 -31 0 -34 3
-40 35 -9 44 -2 55 33 55 21 0 30 -6 35 -22z m718 3 c4 -4 3 -24 -3 -45 -10
-37 -11 -38 -47 -31 -20 4 -39 8 -40 10 -2 2 -1 22 3 45 7 40 7 41 43 34 21
-4 40 -9 44 -13z m-829 -38 c7 -42 3 -49 -35 -58 -21 -5 -27 -3 -32 14 -3 12
-9 30 -12 41 -4 15 1 23 18 29 44 18 55 13 61 -26z m954 6 c20 -7 21 -11 11
-41 -6 -18 -14 -36 -17 -41 -6 -6 -66 8 -79 18 -2 2 2 22 8 44 12 45 11 45 77
20z m-1069 -46 c11 -34 10 -37 -32 -53 -23 -8 -28 -7 -35 13 -23 62 -23 64 11
74 38 11 42 9 56 -34z m1192 1 c23 -9 39 -19 37 -23 -2 -3 -9 -21 -16 -38 -7
-18 -17 -33 -22 -33 -8 0 -67 27 -77 35 -4 3 28 75 33 75 2 0 23 -7 45 -16z
m-1311 -25 c15 -44 14 -56 -6 -62 -10 -2 -25 -8 -34 -11 -12 -6 -19 1 -28 25
-16 47 -14 56 17 67 39 15 39 15 51 -19z m-113 -55 c16 -39 14 -44 -27 -61
-24 -10 -27 -9 -43 23 -21 46 -21 51 12 62 41 15 42 15 58 -24z m1583 -3 c12
-7 10 -15 -8 -45 -13 -20 -24 -36 -26 -36 -6 0 -75 42 -75 45 0 2 9 20 21 39
20 34 22 35 47 21 15 -8 33 -18 41 -24z m-1696 -46 c21 -45 22 -42 -13 -60
-38 -20 -37 -20 -55 15 -21 40 -19 47 13 64 37 20 36 21 55 -19z m1810 -28
c22 -18 22 -26 -7 -62 l-24 -29 -36 27 -36 28 26 34 c27 36 33 36 77 2z m110
-149 c-32 -34 -40 -34 -70 -6 -29 27 -29 36 4 70 l27 28 33 -32 33 -32 -27
-28z m96 -44 c27 -35 27 -39 -10 -65 l-30 -21 -30 28 -29 28 27 28 c33 35 46
35 72 2z m-917 -104 c-9 -43 -9 -44 -17 -17 -5 18 -3 45 6 70 11 36 14 38 16
17 2 -14 -1 -45 -5 -70z m996 -62 c-18 -15 -35 -28 -38 -28 -3 0 -15 15 -28
33 l-22 32 32 27 33 28 28 -33 28 -32 -33 -27z m72 -34 c12 -19 21 -36 19 -38
-2 -1 -18 -12 -35 -24 l-32 -22 -26 35 -27 35 28 25 c37 33 47 31 73 -11z m79
-124 l22 -40 -33 -20 c-18 -11 -36 -20 -40 -20 -9 0 -50 72 -43 78 8 8 59 40
66 41 3 1 15 -17 28 -39z m-1535 -81 c10 -51 7 -59 -18 -59 -18 0 -25 7 -30
31 -10 51 -7 59 18 59 18 0 25 -7 30 -31z m-79 -25 c6 -35 -3 -53 -27 -54 -6
0 -28 63 -28 82 0 7 32 16 41 11 4 -1 10 -19 14 -39z m-72 -23 c6 -25 5 -36
-5 -42 -21 -14 -25 -11 -37 22 -17 48 -14 61 11 57 15 -2 24 -13 31 -37z m-72
-22 c11 -34 10 -42 -2 -50 -22 -14 -25 -12 -39 32 -12 35 -12 42 1 50 23 14
28 11 40 -32z m-68 -26 c14 -35 14 -39 -1 -51 -18 -14 -24 -9 -42 36 -11 29
-11 35 1 43 22 14 26 11 42 -28z m-53 -69 c0 -7 -6 -14 -14 -17 -10 -4 -22 7
-36 31 -21 34 -21 37 -4 49 16 12 20 10 36 -19 9 -18 17 -38 18 -44z m1979 9
c12 -44 7 -52 -41 -59 -32 -6 -36 -3 -42 19 -3 14 -8 32 -12 40 -3 10 4 18 23
25 50 18 61 15 72 -25z m-912 -51 c8 -5 0 -15 -22 -29 -25 -17 -33 -19 -30 -8
3 8 7 22 10 30 5 16 23 19 42 7z m56 -66 c4 -9 -7 -22 -29 -35 -48 -29 -63
-15 -22 20 38 33 44 34 51 15z m892 -27 c4 -22 5 -42 3 -44 -2 -2 -23 -7 -46
-11 -42 -6 -42 -6 -43 25 -1 17 -2 37 -3 43 -1 11 30 23 71 27 6 0 14 -17 18
-40z m-860 -19 c5 -8 -62 -50 -80 -50 -16 0 -1 23 28 40 36 23 43 24 52 10z
m-119 -39 l25 -39 75 34 c87 39 88 40 75 17 -5 -10 -39 -29 -76 -43 l-66 -25
8 -35 c4 -19 8 -72 8 -116 0 -67 -4 -86 -19 -103 -11 -12 -24 -21 -31 -21 -20
0 -36 50 -42 135 -5 75 3 235 13 235 2 0 15 -18 30 -39z m149 -60 c-6 -5 -27
-13 -49 -17 -49 -9 -46 14 5 32 35 12 62 3 44 -15z m849 -26 c9 -47 2 -55 -44
-55 -37 0 -38 1 -42 41 -2 22 -2 42 1 45 2 2 21 4 42 4 34 0 37 -2 43 -35z
m-850 -20 c-4 -8 -15 -16 -25 -16 -10 -1 -24 -2 -31 -3 -22 -2 -19 23 4 27 47
9 58 7 52 -8z m-28 -60 c-19 -14 -36 -12 -36 5 0 9 41 19 50 12 3 -2 -4 -10
-14 -17z m882 -69 c4 -49 -6 -59 -52 -51 -34 7 -36 10 -36 44 0 47 2 48 48 47
36 -2 37 -3 40 -40z m-898 24 c0 -5 -4 -10 -10 -10 -5 0 -10 5 -10 10 0 6 5
10 10 10 6 0 10 -4 10 -10z m886 -173 c-9 -55 -11 -56 -56 -45 -40 10 -40 11
-34 47 9 49 7 47 54 43 l42 -4 -6 -41z m-47 -102 c20 -6 23 -11 18 -43 -4 -19
-10 -39 -15 -44 -7 -7 -66 6 -80 17 -2 2 2 22 8 44 8 32 15 41 28 37 9 -2 28
-7 41 -11z m-1474 -84 c-8 -44 -16 -53 -34 -41 -21 13 3 92 25 83 12 -4 14
-14 9 -42z m67 -11 c-4 -41 -15 -55 -37 -47 -11 5 -14 14 -9 34 10 49 14 55
31 51 14 -3 17 -11 15 -38z m49 18 c0 -7 2 -22 4 -33 5 -26 -11 -53 -23 -40
-11 12 -3 85 9 85 5 0 9 -6 10 -12z m678 -218 c230 -247 256 -276 305 -327 47
-50 49 -53 33 -71 -22 -24 -21 -31 5 -59 l21 -23 -23 0 c-13 0 -32 8 -43 18
-15 12 -21 14 -24 5 -3 -7 -9 -13 -15 -13 -7 0 -6 5 1 14 9 10 -36 77 -209
312 -121 164 -219 306 -219 314 0 10 9 4 26 -15 14 -16 78 -86 142 -155z m628
158 c18 -7 33 -18 33 -26 0 -13 -28 -72 -34 -72 -8 0 -76 30 -76 34 0 11 31
76 37 76 4 0 22 -5 40 -12z m187 -3 c32 -14 35 -18 26 -35 -13 -24 -9 -24 -54
-5 -39 17 -39 16 -30 39 8 20 12 20 58 1z m-34 -70 c30 -15 39 -38 20 -50 -5
-3 -24 2 -42 11 -42 21 -40 18 -32 38 8 20 17 20 54 1z m-180 -89 c0 -6 -9
-26 -20 -44 l-21 -34 -32 21 c-40 25 -41 29 -17 68 l20 33 35 -17 c19 -9 35
-21 35 -27z m150 19 c33 -17 33 -17 24 -39 -8 -21 -22 -20 -62 4 -28 17 -32
23 -22 35 16 19 24 19 60 0z m-13 -92 c2 -4 -1 -15 -6 -22 -8 -13 -15 -12 -45
4 -38 21 -44 33 -24 53 9 9 19 7 42 -8 17 -10 32 -23 33 -27z m-239 -33 c35
-22 35 -27 -7 -79 l-19 -24 -30 24 c-37 29 -38 33 -11 70 24 34 25 35 67 9z
m170 -10 c36 -22 39 -32 17 -50 -26 -22 -93 39 -68 63 10 10 15 9 51 -13z
m916 -15 c20 -8 36 -17 36 -19 0 -1 -5 -17 -11 -35 -12 -33 -24 -35 -75 -7
-19 10 -20 13 -7 44 15 37 11 36 57 17z m-958 -51 c33 -25 34 -28 18 -45 -16
-18 -18 -17 -50 7 -28 22 -32 29 -23 45 13 24 14 24 55 -7z m-221 -108 c-15
-20 -30 -36 -34 -36 -4 0 -20 14 -36 30 l-29 30 34 35 34 35 29 -29 30 -29
-28 -36z m194 2 c-13 -23 -16 -23 -56 8 -32 25 -33 27 -18 45 17 17 18 17 50
-8 27 -22 32 -30 24 -45z m971 19 c0 -7 -17 -45 -25 -55 -1 -1 -18 5 -38 13
-41 17 -45 29 -22 62 15 22 17 22 50 6 19 -9 35 -21 35 -26z m-1014 -71 c-1
-5 -10 -14 -19 -20 -13 -8 -23 -4 -47 19 -28 27 -29 30 -14 47 16 17 18 16 50
-10 18 -15 31 -31 30 -36z m-81 -26 c27 -29 28 -31 12 -47 -16 -16 -19 -16
-48 14 -27 27 -30 33 -18 47 19 21 21 20 54 -14z m1010 13 c40 -19 41 -24 19
-58 l-16 -24 -39 20 -39 20 15 29 c18 35 15 34 60 13z m-1285 -59 c12 -19 21
-36 19 -38 -2 -2 -25 -6 -51 -10 -42 -6 -48 -5 -59 16 -9 16 -9 23 -1 26 7 2
22 12 34 22 31 26 33 25 58 -16z m215 -11 c29 -33 30 -42 9 -50 -9 -3 -27 5
-44 22 -23 22 -26 30 -17 41 17 19 25 17 52 -13z m1042 -64 c2 -7 -4 -23 -12
-34 -15 -19 -16 -19 -50 -1 -39 21 -42 31 -19 64 16 23 16 23 47 4 18 -10 33
-25 34 -33z m-1393 15 c4 -11 -4 -19 -29 -30 -42 -17 -52 -18 -58 -1 -4 12 46
46 69 47 7 0 15 -7 18 -16z m1320 -97 c19 -14 19 -15 0 -45 l-20 -32 -37 27
-36 26 20 28 c21 30 28 30 73 -4z m-2421 -45 c13 -16 5 -24 -17 -16 -10 4 -15
13 -12 21 3 8 7 22 7 31 1 13 3 12 6 -3 3 -11 10 -26 16 -33z m701 -8 c9 -20
15 -38 14 -40 -2 -2 -22 -6 -45 -10 l-41 -6 -4 41 c-4 49 -3 51 32 51 20 0 30
-8 44 -36z m-384 -13 c0 -43 -9 -55 -34 -45 -10 4 -16 18 -16 38 0 37 6 46 32
46 14 0 18 -8 18 -39z m128 -8 l3 -43 -47 0 -46 0 6 31 c3 17 6 38 6 46 0 10
10 13 38 11 36 -3 37 -4 40 -45z m130 0 l3 -43 -39 0 c-38 0 -40 1 -45 38 -6
49 -2 54 41 50 36 -3 37 -4 40 -45z m1763 -14 c34 -24 36 -39 10 -64 -19 -16
-21 -16 -50 5 -36 25 -36 28 -15 58 19 27 19 27 55 1z m-64 -97 l32 -27 -24
-28 -24 -27 -32 28 c-32 28 -32 29 -14 55 9 15 20 27 24 27 3 0 20 -13 38 -28z
m-2318 -21 c20 -13 -4 -81 -29 -81 -28 0 -32 15 -16 55 16 37 22 40 45 26z
m1077 -6 c-22 -17 -36 -19 -36 -7 0 14 12 22 34 22 21 -1 21 -1 2 -15z m-225
-46 c11 -34 10 -42 -2 -50 -23 -14 -28 -11 -40 32 -11 34 -10 42 2 50 23 14
28 11 40 -32z m80 9 c8 -16 8 -23 -2 -29 -22 -14 -36 -11 -42 9 -2 9 -8 24
-11 33 -11 25 42 12 55 -13z m79 18 c0 -18 -30 -30 -43 -17 -5 5 -6 14 -3 20
10 16 46 13 46 -3z m-950 -42 c0 -38 -3 -45 -16 -40 -9 3 -18 6 -20 6 -8 0 -4
29 8 55 17 38 28 30 28 -21z m719 -11 c8 -28 7 -39 -2 -45 -23 -15 -33 -8 -44
32 -9 34 -8 42 6 49 21 13 29 6 40 -36z m1476 -2 c19 -22 19 -22 -6 -46 l-24
-24 -34 26 c-32 25 -33 27 -12 34 12 5 21 17 21 29 0 17 3 19 18 11 9 -5 26
-19 37 -30z m-1602 -25 c10 -42 10 -43 -18 -48 -16 -2 -20 4 -26 37 -4 26 -3
43 5 47 19 13 30 3 39 -36z m-72 -9 c5 -31 2 -40 -13 -48 -20 -11 -21 -9 -32
44 -8 34 0 49 22 45 11 -2 19 -17 23 -41z m-221 -13 c0 -41 -2 -45 -20 -40
-11 3 -20 8 -20 11 0 3 0 21 0 40 0 28 4 35 20 35 17 0 20 -7 20 -46z m70 1
c0 -38 -3 -45 -20 -45 -17 0 -20 7 -20 45 0 38 3 45 20 45 17 0 20 -7 20 -45z
m78 -2 c3 -40 1 -43 -22 -43 -24 0 -26 3 -26 46 0 41 2 45 23 42 18 -2 23 -10
25 -45z m1653 -29 c26 -25 27 -28 12 -50 -20 -31 -31 -30 -65 3 l-28 27 22 23
c27 29 26 29 59 -3z m-76 -84 l29 -30 -27 -28 -28 -27 -30 34 -31 33 23 24
c12 13 25 24 29 24 3 0 19 -14 35 -30z m-149 -189 l-27 -26 -29 35 -30 35 27
24 27 23 29 -32 29 -33 -26 -26z m-91 -16 l26 -36 -23 -19 c-31 -26 -39 -25
-66 13 l-23 32 28 22 c16 13 29 23 29 23 1 0 14 -16 29 -35z m-94 -71 l22 -37
-24 -18 c-32 -24 -34 -24 -58 10 -26 36 -26 39 2 62 30 25 32 24 58 -17z m-98
-63 c23 -39 22 -46 -9 -60 -30 -13 -39 -9 -59 29 -14 27 -14 30 7 44 31 22 41
20 61 -13z m-100 -63 c18 -32 18 -33 -3 -50 -12 -10 -28 -18 -34 -18 -11 0
-51 69 -44 75 12 9 45 24 53 25 6 0 18 -15 28 -32z m-104 -56 l20 -39 -30 -17
c-34 -20 -42 -17 -59 25 -12 29 -12 33 11 50 33 25 36 24 58 -19z m-101 -64
c11 -26 9 -29 -18 -43 -39 -20 -38 -20 -55 21 -19 46 -20 41 13 58 30 16 40
11 60 -36z m-114 -34 c9 -20 16 -38 14 -39 -12 -10 -49 -25 -61 -25 -8 0 -18
11 -21 24 -3 13 -8 31 -11 38 -5 14 25 36 51 37 6 1 18 -15 28 -35z m-114 -40
c13 -39 8 -49 -31 -59 -23 -6 -28 -2 -38 26 -15 44 -14 48 12 59 37 15 45 11
57 -26z m-1465 -4 c3 -5 1 -10 -4 -10 -6 0 -11 5 -11 10 0 6 2 10 4 10 3 0 8
-4 11 -10z m1354 -39 c6 -19 9 -36 7 -38 -2 -2 -19 -6 -38 -10 -31 -5 -36 -2
-42 20 -3 14 -8 32 -11 39 -4 10 5 18 27 25 38 11 41 9 57 -36z m-205 -23 c13
-51 8 -65 -26 -71 -38 -5 -48 5 -48 50 0 22 5 33 18 36 37 10 50 6 56 -15z
m-864 -7 c0 -26 -9 -30 -47 -19 -52 14 -39 34 25 37 16 1 22 -5 22 -18z m130
-4 c0 -40 -20 -56 -58 -45 -24 6 -32 13 -28 24 3 9 6 22 6 30 0 10 12 14 40
14 35 0 40 -3 40 -23z m126 10 c5 -6 -13 -82 -19 -79 -4 1 -20 2 -37 2 -32 0
-37 16 -23 68 5 21 10 23 42 17 20 -4 37 -8 37 -8z m124 -41 c0 -47 -11 -56
-52 -49 -35 5 -37 7 -32 37 9 51 10 52 48 48 33 -4 36 -7 36 -36z m366 10 c8
-45 0 -56 -42 -56 -34 0 -34 0 -34 45 0 45 0 45 35 45 31 0 35 -3 41 -34z
m-248 -23 l3 -43 -40 0 c-41 0 -41 0 -41 38 0 47 6 54 45 50 28 -3 30 -6 33
-45z m125 10 c6 -49 3 -53 -38 -53 -31 0 -33 2 -37 41 -2 22 -2 42 1 45 2 2
19 4 37 4 29 0 32 -3 37 -37z"/>
<path d="M1035 4073 c-271 -180 -484 -421 -628 -709 -64 -126 -124 -291 -111
-303 5 -4 212 -61 459 -126 248 -65 455 -120 460 -122 6 -1 22 27 37 65 55
135 153 259 279 352 l77 57 -244 414 c-135 228 -248 415 -252 417 -4 1 -39
-19 -77 -45z m85 -29 c12 -19 21 -36 19 -38 -21 -15 -55 -36 -60 -36 -8 0 -53
70 -48 74 21 15 55 36 60 36 4 0 17 -16 29 -36z m-92 -112 c-26 -31 -49 -35
-74 -11 -31 29 -30 43 3 69 l27 21 27 -33 c21 -25 25 -36 17 -46z m-116 -95
l-26 -27 -34 32 -33 33 32 29 32 29 28 -34 28 -34 -27 -28z m-72 -61 c0 -13
-31 -46 -44 -46 -6 0 -24 11 -41 24 l-30 24 29 31 30 31 28 -27 c15 -15 28
-31 28 -37z m-113 -62 l33 -25 -22 -29 c-13 -16 -26 -29 -30 -29 -3 -1 -20 11
-37 25 l-31 25 22 30 c12 16 24 29 26 29 3 0 20 -12 39 -26z m-82 -101 l33
-26 -21 -29 c-25 -34 -34 -35 -71 -5 l-29 24 23 31 c13 18 25 32 27 32 2 0 19
-12 38 -27z m-82 -105 c18 -12 34 -23 35 -24 6 -4 -31 -64 -39 -64 -14 0 -69
35 -69 43 0 10 32 67 38 67 2 0 18 -10 35 -22z m-62 -115 c33 -20 34 -22 17
-58 -13 -29 -27 -31 -68 -10 l-30 15 17 35 c19 40 24 41 64 18z m1052 -54 c21
-37 21 -45 2 -52 -18 -7 -59 48 -51 68 9 24 30 17 49 -16z m-56 -41 c17 -24
20 -35 11 -45 -15 -19 -20 -17 -47 23 -21 30 -22 37 -10 45 20 13 22 12 46
-23z m-1053 -23 c34 -14 35 -16 24 -43 -18 -42 -24 -45 -62 -31 -40 15 -40 14
-25 58 13 36 14 36 63 16z m998 -19 c24 -30 25 -36 12 -47 -12 -10 -20 -7 -43
21 -21 26 -25 37 -17 47 16 18 18 17 48 -21z m-48 -45 c27 -28 28 -51 2 -51
-7 0 -24 13 -39 28 -21 22 -24 31 -15 40 17 17 21 16 52 -17z m-46 -50 c28
-24 31 -30 18 -40 -12 -10 -21 -8 -45 10 -17 13 -31 24 -31 25 0 10 13 34 19
34 3 -1 21 -13 39 -29z m-926 -20 c11 -9 -14 -71 -28 -71 -15 0 -74 21 -74 26
0 3 6 20 14 39 14 33 16 34 48 23 18 -6 36 -14 40 -17z m896 -39 c21 -16 22
-20 8 -31 -13 -11 -20 -9 -46 9 -33 24 -32 22 -24 44 6 17 19 13 62 -22z m-52
-43 c35 -22 41 -33 23 -45 -13 -8 -79 26 -79 42 0 11 10 24 18 24 3 0 20 -9
38 -21z m-33 -55 c42 -22 42 -21 27 -38 -10 -14 -17 -13 -52 5 -32 17 -37 23
-28 35 15 17 14 17 53 -2z m-29 -59 c20 -8 36 -20 36 -25 0 -19 -27 -21 -65
-6 -32 14 -35 18 -25 31 15 18 10 18 54 0z m-7 -66 c15 -5 21 -14 17 -24 -7
-18 -8 -18 -56 -4 -41 11 -41 10 -32 33 6 17 15 16 71 -5z"/>
<path d="M3951 3535 c-31 -115 -223 -906 -220 -909 2 -2 209 -71 459 -154 286
-94 457 -146 461 -140 4 6 60 225 124 487 65 262 122 478 126 479 35 14 -19
34 -254 95 -144 37 -356 92 -472 122 -115 30 -211 55 -212 55 -1 0 -6 -16 -12
-35z m111 -21 c8 -5 -6 -60 -15 -57 -4 1 -21 4 -37 8 -36 8 -43 18 -35 46 6
18 12 20 43 14 20 -4 40 -9 44 -11z m-22 -113 c0 -35 -15 -43 -58 -31 -29 7
-40 15 -37 25 3 8 7 21 9 29 7 21 86 0 86 -23z m-57 -72 c42 -11 40 -9 28 -43
-9 -23 -12 -24 -48 -14 -47 13 -45 10 -37 42 7 30 6 29 57 15z m882 -48 c-4
-14 -8 -27 -10 -29 -3 -4 -85 19 -85 24 0 1 4 14 9 27 9 24 12 25 51 15 38
-10 41 -13 35 -37z m-906 -47 c27 -6 32 -11 29 -33 -3 -24 -7 -26 -42 -24 -48
3 -57 11 -45 41 9 24 12 25 58 16z m854 -15 c33 -9 37 -13 31 -32 -9 -30 -9
-30 -48 -23 -41 8 -47 15 -39 44 6 25 6 25 56 11z m-848 -118 c-4 -14 -8 -27
-10 -29 -4 -4 -85 18 -85 23 0 2 4 15 9 28 9 24 12 25 51 15 38 -10 41 -13 35
-37z m855 0 c0 -33 -14 -41 -53 -30 -29 8 -37 15 -37 33 0 32 6 35 50 24 26
-7 40 -16 40 -27z m-907 -62 c42 -11 40 -9 28 -42 -9 -24 -12 -25 -50 -15 -40
10 -47 21 -35 52 7 19 8 19 57 5z m879 -17 c4 -4 5 -18 1 -31 -5 -20 -10 -22
-41 -17 -44 7 -53 15 -45 45 5 20 10 22 42 16 20 -4 39 -10 43 -13z m-903 -78
c27 -6 32 -11 29 -33 -3 -22 -7 -26 -36 -25 -50 3 -60 9 -55 38 6 28 12 30 62
20z m864 -10 c22 -5 26 -10 21 -28 -3 -11 -9 -24 -13 -28 -11 -12 -81 12 -81
27 0 27 13 46 29 41 9 -3 29 -8 44 -12z m-855 -99 c2 -1 0 -15 -4 -30 -6 -25
-9 -26 -43 -20 -47 9 -54 16 -42 48 9 24 12 25 48 15 21 -5 39 -11 41 -13z
m821 9 c27 -6 32 -11 29 -33 -3 -22 -7 -26 -36 -25 -50 3 -60 9 -55 38 6 28
12 30 62 20z m-881 -94 c29 0 42 -14 35 -39 -5 -20 -10 -22 -42 -16 -45 8 -55
17 -46 45 4 14 12 19 22 16 8 -3 22 -6 31 -6z m888 -13 c3 -3 2 -17 -2 -31 -4
-18 -11 -25 -21 -22 -8 3 -22 6 -31 6 -32 0 -44 15 -33 42 9 24 13 25 46 18
20 -5 39 -10 41 -13z m-905 -68 c44 -15 42 -14 30 -37 -10 -18 -14 -19 -48 -7
-21 7 -38 18 -37 24 3 36 4 37 55 20z m880 -25 c4 -2 4 -15 1 -30 -4 -24 -8
-25 -41 -19 -45 8 -55 17 -46 45 6 19 12 21 43 15 20 -4 40 -9 43 -11z m-28
-94 c5 -4 7 -18 5 -31 -4 -28 -31 -35 -71 -20 -24 9 -25 13 -15 41 9 28 13 30
42 24 17 -3 35 -10 39 -14z m-52 -101 c19 -7 35 -13 37 -14 7 -6 -22 -65 -32
-65 -14 0 -76 20 -76 24 0 13 24 66 29 66 5 0 23 -5 42 -11z"/>
<path d="M241 2868 c-12 -68 -27 -140 -32 -161 -11 -43 -10 -194 2 -217 4 -8
12 -62 19 -120 21 -193 88 -449 157 -596 l28 -62 439 199 c241 109 441 200
444 203 2 3 0 11 -5 18 -20 24 -63 158 -84 261 -24 120 -27 259 -6 334 13 47
12 53 -2 57 -37 12 -910 206 -923 206 -11 0 -21 -32 -37 -122z m121 63 c4 -3
4 -20 -1 -36 -7 -28 -11 -30 -47 -27 -21 2 -41 5 -43 7 -2 2 0 20 3 41 7 35 8
36 44 29 20 -4 40 -10 44 -14z m-27 -151 c0 -32 -2 -35 -33 -38 -51 -5 -59 1
-54 42 4 37 5 37 46 34 40 -3 41 -4 41 -38z m843 -29 c-2 -9 -9 -16 -16 -15
-6 1 -25 2 -42 3 -22 1 -30 6 -30 19 0 28 7 31 51 19 28 -7 39 -14 37 -26z
m-14 -51 c16 -15 -5 -30 -43 -30 -44 0 -51 4 -44 30 4 15 12 17 41 13 21 -3
41 -9 46 -13z m-845 -16 c2 -2 5 -17 6 -34 3 -29 1 -30 -41 -30 l-44 0 0 39 0
40 38 -6 c20 -3 39 -7 41 -9z m812 -44 c22 0 29 -5 29 -20 0 -17 -7 -20 -45
-20 -42 0 -45 2 -45 26 0 20 4 25 16 20 9 -3 29 -6 45 -6z m-801 -105 c0 -35
0 -35 -45 -35 -45 0 -45 0 -45 35 0 35 0 35 45 35 45 0 45 0 45 -35z m828 8
c3 -21 -1 -23 -42 -23 -43 0 -46 2 -46 26 0 23 3 25 43 22 35 -2 43 -7 45 -25z
m9 -69 c8 -20 -13 -34 -53 -34 -23 0 -33 5 -37 19 -7 27 0 31 45 31 26 0 41
-5 45 -16z m-827 -60 c0 -34 -1 -34 -45 -34 -41 0 -45 2 -45 25 0 14 0 28 0
33 -1 8 60 20 78 14 6 -2 12 -19 12 -38z m837 -10 c8 -21 -6 -32 -47 -36 -30
-2 -35 0 -38 19 -3 18 3 22 30 26 18 2 37 5 41 5 4 1 10 -5 14 -14z m16 -95
c-5 -4 -26 -9 -48 -11 -34 -3 -40 0 -40 17 0 27 64 39 83 16 6 -8 9 -18 5 -22z
m-842 -8 c7 -35 6 -35 -47 -45 -27 -4 -33 -1 -38 17 -12 45 -7 56 27 60 47 5
51 4 58 -32z m858 -40 c9 -16 5 -20 -31 -29 -23 -6 -45 -9 -50 -6 -19 12 -6
34 25 43 45 13 45 13 56 -8z m-837 -76 c4 -16 4 -33 0 -36 -12 -13 -82 -22
-82 -11 0 5 -3 23 -6 40 -6 29 -4 31 27 35 49 5 52 4 61 -28z m862 10 c5 -15
-4 -22 -61 -39 -22 -7 -24 -5 -27 26 -1 12 31 25 65 27 9 1 20 -6 23 -14z m24
-63 c4 -14 -55 -45 -74 -38 -25 10 -15 33 19 43 37 12 49 11 55 -5z m-857 -59
c14 -37 6 -51 -36 -59 -42 -8 -41 -8 -50 33 -6 30 -4 33 27 42 48 13 48 14 59
-16z m38 -124 c13 -38 9 -46 -29 -54 -16 -4 -32 -7 -36 -8 -3 -1 -12 13 -20
31 -13 33 -13 33 19 47 46 20 54 19 66 -16z m46 -120 c9 -17 15 -32 13 -34 -6
-5 -67 -35 -72 -35 -7 0 -36 56 -36 68 0 8 45 29 67 31 7 1 20 -13 28 -30z"/>
<path d="M878 1871 c-236 -119 -428 -220 -428 -225 0 -5 21 -43 46 -85 141
-232 345 -441 579 -593 89 -58 343 -193 350 -186 7 6 385 878 385 886 0 4 -35
25 -77 46 -163 80 -286 181 -377 310 -26 36 -48 65 -49 64 -1 0 -194 -98 -429
-217z m432 165 c0 -8 -15 -23 -34 -34 -30 -18 -36 -19 -47 -6 -14 17 -14 16
26 37 38 20 55 21 55 3z m37 -52 c5 -15 -56 -57 -73 -50 -22 9 -17 22 19 45
33 21 48 22 54 5z m39 -46 c4 -7 -6 -23 -26 -40 -30 -25 -36 -26 -49 -13 -8 8
-13 16 -10 18 68 53 73 55 85 35z m40 -49 c3 -6 -6 -24 -22 -40 -25 -27 -29
-28 -44 -13 -14 14 -12 18 15 40 34 27 41 29 51 13z m51 -45 c3 -9 -6 -27 -23
-45 -25 -26 -30 -28 -43 -14 -13 13 -12 18 14 45 32 34 43 37 52 14z m36 -81
c-28 -36 -33 -39 -50 -22 -9 9 -6 20 13 45 22 28 29 31 44 22 17 -11 17 -13
-7 -45z m58 -42 c-24 -33 -29 -35 -50 -22 -12 8 -10 16 13 46 25 33 30 35 44
22 13 -14 12 -19 -7 -46z m67 6 c8 -10 6 -21 -8 -45 -21 -34 -27 -37 -48 -23
-11 7 -9 16 10 45 25 40 31 42 46 23z m68 -41 c5 -14 -24 -76 -36 -76 -3 0
-12 5 -20 10 -13 8 -13 14 4 45 20 36 43 45 52 21z m-1125 -43 c7 -16 15 -31
17 -34 3 -6 -69 -53 -73 -47 -44 63 -44 70 -2 91 43 21 42 21 58 -10z m1187
18 c11 -7 11 -15 -2 -45 -15 -36 -42 -48 -52 -22 -6 15 21 76 34 76 4 0 13 -4
20 -9z m-1118 -132 c12 -16 21 -31 19 -33 -2 -1 -17 -12 -33 -24 -37 -28 -38
-28 -60 10 l-19 31 29 24 c16 12 32 23 36 23 4 0 16 -14 28 -31z m79 -100 l24
-31 -29 -24 c-37 -30 -44 -30 -70 4 l-22 27 31 27 c18 15 34 27 37 27 3 0 16
-14 29 -30z m83 -96 l28 -27 -27 -28 c-33 -34 -43 -35 -73 -3 l-24 25 29 30
c16 17 31 30 34 30 3 0 18 -12 33 -27z m91 -91 l27 -28 -29 -28 c-31 -29 -51
-27 -81 9 -11 13 -9 20 15 45 16 17 32 30 35 30 3 0 18 -13 33 -28z m117 -103
c0 -5 -12 -22 -27 -39 l-28 -30 -28 25 -28 25 27 35 26 35 29 -21 c16 -11 29
-24 29 -30z m78 -48 c28 -24 27 -29 -2 -65 l-23 -30 -32 23 c-34 24 -34 24 8
74 17 21 20 21 49 -2z m104 -69 l27 -18 -21 -34 c-11 -19 -22 -36 -23 -38 -3
-3 -36 15 -64 34 -5 4 40 74 47 74 4 0 19 -8 34 -18z m98 -57 c17 -9 30 -18
30 -21 0 -5 -30 -66 -35 -72 -4 -4 -65 27 -65 33 0 8 34 75 37 75 2 0 17 -7
33 -15z m108 -52 c15 -9 28 -18 30 -19 3 -2 -25 -62 -33 -72 -4 -5 -65 21 -65
29 0 10 32 79 37 79 2 0 16 -8 31 -17z"/>
</g>
</svg>
