<?xml version="1.0" standalone="no"?>
<!DOCTYPE svg PUBLIC "-//W3C//DTD SVG 20010904//EN"
 "http://www.w3.org/TR/2001/REC-SVG-20010904/DTD/svg10.dtd">
<svg version="1.0" xmlns="http://www.w3.org/2000/svg"
 width="1000.000000pt" height="1000.000000pt" viewBox="0 0 1000.000000 1000.000000"
 preserveAspectRatio="xMidYMid meet">
<metadata>
Created by potrace 1.11, written by Peter Selinger 2001-2013
</metadata>
<g transform="translate(0.000000,1000.000000) scale(0.100000,-0.100000)"
fill="#000000" stroke="none">
<path d="M5 6000 l0 -3990 1020 -3 1020 -2 -1022 -3 -1023 -2 0 -1000 0 -1000
5000 0 5000 0 0 1000 0 1000 -1367 3 -1368 2 1365 3 1365 2 0 3990 0 3990
-4995 0 -4995 0 0 -3990z m3138 -3997 c-18 -2 -48 -2 -65 0 -18 2 -4 4 32 4
36 0 50 -2 33 -4z m2285 0 c-15 -2 -42 -2 -60 0 -18 2 -6 4 27 4 33 0 48 -2
33 -4z"/>
</g>
</svg>
