<?xml version="1.0" standalone="no"?>
<!DOCTYPE svg PUBLIC "-//W3C//DTD SVG 20010904//EN"
 "http://www.w3.org/TR/2001/REC-SVG-20010904/DTD/svg10.dtd">
<svg version="1.0" xmlns="http://www.w3.org/2000/svg"
 width="500.000000pt" height="500.000000pt" viewBox="0 0 500.000000 500.000000"
 preserveAspectRatio="xMidYMid meet">
<metadata>
Created by potrace 1.11, written by Peter Selinger 2001-2013
</metadata>
<g transform="translate(0.000000,500.000000) scale(0.100000,-0.100000)"
fill="#000000" stroke="none">
<path d="M1995 4420 c-203 -22 -246 -30 -390 -77 -134 -43 -200 -70 -331 -134
l-102 -50 83 -152 c46 -84 149 -273 230 -422 81 -148 148 -271 149 -273 2 -1
41 16 87 37 96 45 215 86 277 95 l42 6 0 -62 c1 -36 7 -74 15 -88 8 -14 14
-39 15 -57 0 -17 5 -54 12 -82 11 -51 11 -52 -22 -86 -47 -48 -94 -61 -170
-47 -104 19 -160 -12 -160 -91 0 -44 24 -107 40 -107 7 0 35 7 63 14 29 8 107
22 175 30 68 9 133 21 144 27 25 13 34 4 73 -71 28 -54 67 -171 60 -178 -3 -3
-36 1 -74 9 l-69 15 -21 -65 c-67 -215 -261 -852 -261 -856 0 -2 21 -11 48
-18 l47 -14 3 -52 c2 -28 1 -51 -1 -51 -2 0 -25 7 -52 17 -42 14 -50 14 -58 2
-5 -8 -77 -183 -160 -389 -146 -360 -153 -375 -180 -378 -35 -4 -45 -27 -23
-51 11 -12 15 -27 11 -43 -6 -24 -2 -26 147 -75 311 -104 599 -140 858 -109
129 16 240 34 240 40 0 11 -189 938 -192 941 -1 2 -28 -1 -58 -6 -61 -11 -272
-15 -286 -7 -5 4 -7 31 -6 61 l4 56 126 -3 c116 -3 240 4 317 18 26 5 33 1 53
-29 12 -19 22 -36 22 -38 0 -2 -30 -12 -66 -22 -58 -16 -65 -20 -61 -39 2 -11
51 -222 108 -468 85 -366 107 -448 120 -448 26 0 181 47 288 86 241 90 561
279 750 443 l33 29 -173 199 c-95 109 -199 228 -232 266 l-59 67 33 0 c31 0
50 -17 234 -220 110 -121 211 -233 224 -247 l23 -27 104 108 c201 208 348 415
469 659 67 135 112 245 104 251 -2 1 -202 73 -444 161 -242 87 -445 160 -450
162 -6 2 -26 -32 -43 -76 -70 -171 -194 -354 -326 -480 l-67 -64 20 -21 c26
-27 26 -32 2 -39 -12 -3 -27 3 -37 14 -16 18 -18 18 -36 2 -10 -9 -21 -13 -25
-10 -4 4 1 13 10 20 16 11 -6 44 -203 312 -210 285 -272 385 -177 285 53 -56
288 -309 436 -469 l41 -45 47 40 c26 22 80 89 121 150 131 194 195 354 228
569 19 120 13 362 -10 469 -20 87 -57 205 -66 211 -5 3 -123 -40 -265 -95
-141 -55 -258 -100 -261 -100 -3 0 -4 12 -2 26 3 23 26 37 243 136 132 61 243
113 248 117 9 9 -71 142 -163 274 -35 50 -114 142 -175 202 -151 152 -304 251
-495 320 -92 33 -282 77 -291 67 -3 -4 -14 -72 -23 -152 -17 -142 -26 -182
-26 -124 0 16 -10 49 -21 74 -17 39 -19 56 -13 131 l6 86 -101 11 c-56 7 -109
11 -119 11 -9 -1 -93 -10 -187 -19z m117 -65 c3 -39 3 -40 -33 -43 -34 -3 -37
-1 -43 29 -10 52 -8 58 27 61 41 4 45 1 49 -47z m123 5 c0 -45 0 -45 -35 -45
-31 0 -35 3 -42 35 -11 51 -4 62 39 58 38 -3 38 -3 38 -48z m133 34 c2 -1 1
-21 -3 -44 -7 -40 -8 -41 -43 -38 -34 3 -37 6 -40 36 -5 53 2 62 45 55 21 -3
40 -7 41 -9z m-375 -33 c11 -45 3 -61 -32 -61 -34 0 -36 2 -45 52 -6 34 -5 37
21 41 42 6 46 3 56 -32z m-118 -3 c12 -56 10 -61 -19 -69 -37 -10 -42 -7 -50
36 -9 45 -2 55 34 55 23 0 31 -5 35 -22z m718 5 c9 -6 -1 -63 -13 -77 -5 -5
-25 -5 -44 -2 -38 7 -44 22 -29 74 5 21 10 23 42 17 20 -4 40 -9 44 -12z
m-829 -25 c13 -50 7 -66 -25 -73 -37 -8 -45 -2 -53 47 -5 30 -3 37 11 41 42
11 61 7 67 -15z m937 1 c19 -7 35 -13 37 -15 5 -4 -21 -84 -27 -84 -18 0 -81
22 -81 28 0 20 22 82 29 82 4 0 23 -5 42 -11z m-1053 -48 c16 -50 17 -47 -20
-60 -28 -10 -35 -9 -45 6 -7 9 -13 22 -13 29 0 7 -3 19 -6 27 -3 10 4 18 23
25 44 16 49 14 61 -27z m1197 -5 c19 -8 35 -17 35 -20 0 -14 -35 -76 -42 -76
-12 0 -78 28 -78 33 0 16 32 77 40 77 6 0 26 -7 45 -14z m-1312 -36 l15 -40
-28 -15 c-41 -21 -45 -20 -63 25 -15 40 -15 40 11 55 40 21 48 19 65 -25z
m-115 -43 c7 -18 12 -36 12 -40 0 -7 -60 -40 -65 -35 -7 9 -35 68 -35 76 0 11
38 30 60 31 9 1 21 -13 28 -32z m1558 12 c40 -24 42 -34 10 -73 l-23 -30 -36
23 c-21 12 -37 24 -37 26 0 8 42 75 47 75 3 0 21 -9 39 -21z m-1673 -64 c22
-46 22 -50 -8 -63 -37 -17 -41 -16 -64 23 l-21 36 33 19 c17 11 35 20 38 20 3
0 13 -16 22 -35z m1807 -24 l35 -30 -31 -31 c-33 -34 -40 -33 -87 4 -18 14
-17 16 5 50 13 20 28 36 33 36 6 0 26 -13 45 -29z m110 -91 l35 -29 -29 -30
c-36 -38 -43 -38 -78 -4 l-27 26 27 33 c15 18 29 33 32 33 3 0 21 -13 40 -29z
m103 -162 c-33 -35 -40 -35 -75 -1 l-28 27 32 33 32 33 33 -32 33 -32 -27 -28z
m-913 2 c-5 -36 -10 -71 -10 -78 0 -7 -4 -10 -10 -7 -15 10 -12 65 7 112 10
23 19 41 20 39 1 -1 -2 -31 -7 -66z m998 -50 c12 -16 22 -33 22 -37 0 -7 -64
-53 -73 -53 -2 0 -14 14 -27 32 l-23 31 34 28 c19 16 37 29 40 29 3 0 15 -13
27 -30z m66 -94 l25 -34 -34 -26 c-18 -14 -36 -26 -38 -26 -3 0 -17 16 -32 36
l-28 36 29 24 c39 31 47 30 78 -10z m75 -120 c12 -18 21 -38 21 -43 0 -8 -61
-43 -75 -43 -8 0 -47 72 -41 77 10 10 60 41 68 42 3 1 16 -14 27 -33z m-1535
-78 c10 -40 7 -68 -9 -68 -8 0 -18 -1 -22 -1 -9 -2 -32 73 -26 84 2 4 15 7 27
7 16 0 26 -7 30 -22z m-79 -29 c8 -44 -3 -66 -28 -56 -20 8 -32 77 -15 88 25
17 36 9 43 -32z m-81 13 c3 -5 8 -28 12 -51 6 -40 6 -43 -16 -39 -16 2 -27 14
-36 40 -11 33 -11 39 4 48 21 12 29 12 36 2z m-59 -64 c12 -37 5 -58 -20 -58
-19 0 -45 76 -32 89 19 19 38 8 52 -31z m-67 -32 c13 -32 13 -39 1 -47 -23
-14 -28 -11 -49 31 -19 37 -19 40 -2 49 25 15 33 10 50 -33z m-69 -25 c15 -29
17 -41 8 -50 -19 -19 -33 -12 -50 25 -14 28 -15 39 -6 50 18 22 27 17 48 -25z
m1990 -12 c17 -49 14 -66 -13 -73 -13 -3 -31 -9 -40 -12 -15 -6 -22 4 -40 62
-5 18 0 24 31 37 51 21 50 21 62 -14z m-905 -68 c3 -5 -10 -21 -29 -35 -37
-28 -42 -24 -25 18 9 26 43 36 54 17z m52 -63 c9 -14 -43 -58 -68 -58 -26 0
-22 10 15 41 36 32 43 34 53 17z m889 -10 c15 -65 12 -72 -30 -79 -22 -4 -43
-4 -47 -1 -4 4 -8 25 -10 46 -3 35 0 41 22 47 45 13 59 10 65 -13z m-965 -100
c0 -15 25 -8 98 27 50 23 72 30 72 21 0 -19 -17 -31 -85 -58 -48 -20 -59 -29
-56 -44 2 -10 5 -60 8 -110 5 -90 4 -92 -25 -125 l-29 -33 -19 29 c-15 23 -20
52 -23 143 -2 62 0 138 4 168 l7 56 24 -33 c13 -18 24 -37 24 -41z m107 56 c3
-10 -57 -44 -77 -44 -21 0 -9 21 23 40 33 20 48 21 54 4z m33 -79 c0 -16 -38
-35 -71 -35 -31 0 -17 22 22 36 45 17 49 17 49 -1z m850 -56 c0 -35 -2 -37
-37 -42 -47 -5 -50 -2 -55 48 -3 40 -3 40 37 45 46 6 55 -2 55 -51z m-866 -16
c-23 -17 -64 -17 -64 0 0 16 73 37 79 23 2 -5 -4 -15 -15 -23z m-10 -47 c-8
-20 -44 -21 -44 -2 0 8 10 16 23 18 28 5 29 4 21 -16z m878 -37 c2 -5 2 -28 0
-50 l-4 -40 -42 3 c-39 3 -41 5 -44 36 -2 19 -1 40 2 48 6 17 82 20 88 3z
m-902 -9 c0 -5 -4 -10 -10 -10 -5 0 -10 5 -10 10 0 6 5 10 10 10 6 0 10 -4 10
-10z m866 -130 c21 0 24 -4 24 -37 0 -56 -9 -65 -56 -55 -36 8 -39 11 -38 40
3 47 12 65 30 58 9 -3 27 -6 40 -6z m-38 -140 c37 0 44 -14 31 -59 -13 -44
-19 -47 -68 -30 -35 12 -35 11 -20 62 7 28 15 37 26 33 8 -3 22 -6 31 -6z
m-1462 -50 c15 -15 -5 -90 -23 -90 -21 0 -26 26 -13 65 12 37 19 42 36 25z
m70 -32 c-3 -13 -6 -33 -6 -45 0 -18 -6 -23 -25 -23 -24 0 -26 2 -19 38 9 48
11 52 36 52 16 0 19 -5 14 -22z m54 -40 c0 -32 -3 -38 -21 -38 -19 0 -20 4
-14 43 4 23 10 46 12 51 10 15 23 -18 23 -56z m1305 -22 c19 -8 35 -18 35 -21
0 -3 -9 -24 -20 -45 l-20 -40 -40 20 c-22 11 -40 22 -40 24 0 15 32 76 40 76
6 0 26 -7 45 -14z m180 0 c37 -16 40 -22 26 -45 -18 -27 -100 12 -88 43 8 20
18 20 62 2z m-30 -70 c39 -16 40 -19 25 -47 -11 -19 -11 -19 -50 1 -43 22 -43
21 -34 44 8 20 15 20 59 2z m-207 -66 l32 -20 -20 -40 c-23 -46 -31 -48 -71
-19 -34 24 -34 25 -9 67 23 38 25 38 68 12z m166 -1 c37 -22 44 -37 25 -56
-10 -10 -46 4 -87 33 -3 2 21 44 25 44 1 0 18 -9 37 -21z m6 -96 c0 -3 -7 -14
-16 -24 -15 -17 -18 -17 -55 8 -37 24 -38 27 -23 44 16 18 18 17 55 -2 22 -10
39 -22 39 -26z m-220 -58 c0 -6 -13 -26 -28 -45 l-28 -33 -32 23 c-18 13 -32
28 -32 33 0 4 11 23 26 42 l25 33 34 -21 c19 -12 34 -27 35 -32z m141 18 c31
-18 39 -50 15 -59 -8 -3 -30 5 -49 17 -29 20 -33 26 -23 41 13 22 20 22 57 1z
m937 -29 c21 -14 21 -16 7 -44 -18 -34 -23 -35 -70 -15 l-35 14 17 36 c18 38
32 39 81 9z m-983 -36 c37 -25 42 -37 23 -56 -17 -17 -22 -15 -57 14 -25 21
-29 29 -21 45 13 24 13 24 55 -3z m-185 -79 c0 -3 -16 -20 -35 -39 l-35 -34
-32 32 -32 32 33 34 34 35 33 -27 c19 -15 34 -29 34 -33z m165 -19 c0 -7 -8
-18 -17 -24 -14 -8 -23 -5 -48 19 -28 27 -29 30 -13 47 16 17 17 17 47 -6 17
-13 31 -29 31 -36z m940 33 c40 -19 40 -19 19 -61 l-15 -32 -40 20 c-43 22
-47 34 -23 68 18 26 15 26 59 5z m-985 -93 c0 -4 -8 -14 -17 -23 -17 -14 -21
-13 -51 14 -32 29 -33 31 -17 49 17 19 18 19 51 -7 19 -14 34 -29 34 -33z
m-82 -33 c32 -33 32 -33 12 -52 -11 -10 -21 -16 -23 -14 -1 2 -15 18 -31 36
-24 27 -26 34 -15 47 19 21 21 20 57 -17z m1020 13 l33 -20 -18 -30 c-20 -35
-28 -36 -70 -10 l-32 19 17 31 c20 35 27 36 70 10z m-1294 -57 c30 -43 23 -53
-41 -53 -33 0 -45 5 -54 22 -9 16 -9 23 -1 26 7 2 22 12 34 22 31 26 34 25 62
-17z m220 -12 c16 -16 25 -34 22 -40 -12 -19 -52 -12 -75 13 -20 21 -21 27
-10 40 20 22 32 20 63 -13z m1010 -32 c20 -12 36 -24 36 -28 0 -5 -21 -40 -36
-60 -5 -6 -74 40 -74 50 0 10 30 59 36 59 1 0 19 -9 38 -21z m-1364 -24 c0 -6
-18 -18 -41 -25 -34 -12 -42 -12 -49 0 -6 10 1 20 28 36 37 21 62 17 62 -11z
m1308 -82 l33 -28 -24 -29 -24 -29 -36 27 -37 28 21 29 c11 16 24 29 28 29 4
0 21 -12 39 -27z m-2417 -71 c-21 -6 -33 13 -25 42 l6 26 17 -32 c13 -27 13
-34 2 -36z m705 13 c21 -40 14 -52 -36 -57 -33 -3 -35 -2 -41 37 -8 49 -5 55
30 55 22 0 32 -8 47 -35z m-386 -20 c0 -41 -2 -45 -25 -45 -23 0 -25 4 -25 45
0 41 2 45 25 45 23 0 25 -4 25 -45z m125 -5 l0 -45 -40 0 c-38 0 -40 2 -43 33
-5 53 3 64 45 60 38 -3 38 -3 38 -48z m135 15 c0 -19 1 -38 1 -42 3 -13 -69
-21 -81 -9 -11 11 -14 69 -3 79 3 4 24 7 45 7 37 0 38 -1 38 -35z m1774 -29
c23 -19 26 -27 18 -43 -23 -41 -36 -44 -72 -15 -33 28 -33 28 -15 55 21 33 32
33 69 3z m-74 -95 l35 -30 -26 -27 -27 -27 -36 28 -35 27 21 29 c12 16 24 29
28 29 3 0 21 -13 40 -29z m-1176 4 c-22 -17 -34 -19 -34 -6 0 5 8 12 18 14 32
9 36 7 16 -8z m-64 -35 c-20 -13 -37 -12 -45 0 -9 14 37 31 50 19 6 -7 5 -13
-5 -19z m-1073 9 c16 -16 -15 -92 -35 -84 -7 3 -18 5 -23 5 -13 0 -11 15 5 55
15 36 33 44 53 24z m61 -50 c3 -44 -10 -63 -36 -55 -20 7 -20 8 -5 52 17 52
37 53 41 3z m789 -4 c11 -31 11 -40 1 -47 -23 -15 -41 -3 -54 34 -11 33 -11
39 4 48 25 14 34 8 49 -35z m75 21 c13 -19 9 -35 -12 -46 -18 -10 -22 -7 -35
24 -8 20 -15 37 -15 39 0 9 55 -7 62 -17z m83 13 c8 -12 -24 -40 -40 -35 -5 1
-11 12 -13 24 -3 18 2 22 22 22 14 0 28 -5 31 -11z m-235 -49 c12 -45 7 -60
-19 -60 -27 0 -46 76 -22 90 26 15 30 12 41 -30z m1465 0 c27 -28 27 -30 11
-55 -21 -32 -36 -32 -69 3 -26 27 -26 28 -7 40 11 7 20 19 20 27 0 23 13 18
45 -15z m-1590 -31 c8 -44 -3 -66 -28 -56 -19 7 -30 79 -14 89 24 16 35 7 42
-33z m-73 -9 c9 -44 4 -60 -21 -60 -15 0 -21 9 -26 40 -4 21 -4 44 0 50 13 22
39 5 47 -30z m-218 13 c-1 -7 -2 -26 -2 -43 -2 -25 -6 -30 -28 -30 -22 0 -25
3 -20 23 3 12 6 32 6 45 0 19 5 23 23 20 12 -2 22 -9 21 -15z m74 -27 c3 -40
-10 -59 -35 -49 -8 3 -13 22 -13 50 0 40 2 44 23 41 18 -2 23 -10 25 -42z m72
-1 c0 -41 -2 -45 -25 -45 -23 0 -25 4 -25 45 0 41 2 45 25 45 23 0 25 -4 25
-45z m1658 -33 l33 -27 -29 -28 -29 -28 -32 32 -32 32 22 23 c12 13 25 24 28
24 3 0 21 -13 39 -28z m-83 -82 l29 -30 -27 -27 -27 -28 -32 32 -32 32 24 26
c13 14 26 25 30 25 3 0 19 -14 35 -30z m-131 -177 c-24 -39 -43 -40 -76 -4
l-31 35 29 23 29 23 30 -30 c24 -24 28 -34 19 -47z m-108 -28 c22 -29 24 -38
14 -51 -30 -36 -47 -35 -75 2 l-28 36 29 24 c16 13 30 23 31 24 1 0 14 -16 29
-35z m-91 -71 l28 -37 -24 -18 c-33 -25 -44 -24 -68 10 -26 36 -26 39 2 62 30
25 30 24 62 -17z m-97 -69 l21 -34 -29 -21 c-15 -11 -30 -20 -33 -20 -3 0 -15
17 -27 37 l-22 37 22 18 c32 26 45 22 68 -17z m-101 -61 c17 -35 17 -36 -7
-55 -33 -25 -35 -25 -61 17 l-22 37 22 18 c34 27 49 23 68 -17z m-108 -48 c27
-43 26 -50 -4 -64 -38 -17 -43 -16 -64 25 l-19 38 27 17 c36 23 37 23 60 -16z
m-106 -51 c22 -46 22 -50 -8 -63 -38 -18 -45 -15 -61 23 -18 44 -19 42 14 59
37 20 36 21 55 -19z m-107 -50 c18 -44 19 -42 -16 -60 -39 -20 -37 -20 -55 21
-19 47 -19 49 8 62 36 18 47 14 63 -23z m-110 -48 c13 -38 13 -38 -19 -52 -38
-16 -51 -7 -62 43 -6 27 -3 33 17 42 37 14 50 8 64 -33z m-1430 -25 c-7 -6
-56 18 -56 27 0 6 13 2 29 -7 16 -9 28 -18 27 -20z m1313 -10 c12 -41 8 -47
-35 -56 -29 -6 -32 -4 -38 21 -4 15 -9 35 -12 44 -3 11 5 19 28 26 42 12 45
10 57 -35z m-1213 -12 c15 -6 24 -13 22 -16 -3 -3 -21 2 -39 10 -39 16 -24 21
17 6z m274 -36 c-11 -46 -13 -47 -49 -39 -37 8 -41 13 -34 47 4 23 11 27 42
30 49 4 50 3 41 -38z m736 19 c3 -16 8 -36 10 -45 4 -13 -4 -19 -30 -23 -45
-9 -53 -3 -58 41 -3 29 0 38 16 44 39 16 55 11 62 -17z m-862 -5 c-9 -31 -9
-31 -43 -23 -59 13 -52 45 10 45 37 0 40 -2 33 -22z m254 7 c1 -1 0 -21 -4
-44 -5 -34 -10 -41 -29 -41 -52 0 -64 19 -48 78 5 21 10 23 42 17 20 -4 37 -8
39 -10z m122 -52 l0 -44 -42 3 -43 3 4 40 c4 52 4 52 45 47 35 -4 36 -5 36
-49z m368 10 c3 -40 1 -43 -22 -44 -14 -1 -32 -2 -38 -3 -13 -1 -30 72 -21 87
3 4 21 7 41 5 36 -3 37 -4 40 -45z m-248 -14 l0 -50 -37 3 c-35 3 -38 6 -41
36 -5 50 3 62 43 62 l35 0 0 -51z m128 4 c3 -40 1 -43 -22 -44 -14 -1 -32 -2
-38 -3 -13 -1 -30 72 -21 87 3 4 21 7 41 5 36 -3 37 -4 40 -45z"/>
<path d="M1030 4068 c-282 -193 -503 -449 -640 -743 -50 -107 -105 -254 -97
-261 5 -5 111 -34 657 -179 135 -36 252 -68 260 -70 12 -4 21 10 35 51 41 121
193 310 315 390 22 15 40 30 40 34 0 4 -31 59 -68 121 -37 63 -146 248 -242
411 -96 164 -177 298 -180 298 -3 -1 -39 -24 -80 -52z m94 -28 l19 -32 -24
-19 c-33 -25 -44 -24 -68 10 -27 38 -26 43 7 63 34 22 42 19 66 -22z m-109
-65 l27 -34 -29 -25 c-15 -14 -30 -26 -33 -26 -3 0 -18 16 -33 35 l-28 35 28
25 c15 13 31 25 35 25 4 0 19 -16 33 -35z m-99 -80 c15 -20 25 -37 23 -38 -2
-1 -16 -13 -32 -26 l-27 -25 -29 35 -29 34 26 28 c14 15 29 27 33 27 5 0 20
-16 35 -35z m-98 -88 l32 -33 -30 -29 -30 -29 -32 31 -31 31 24 31 c13 16 26
30 30 30 3 1 19 -14 37 -32z m-86 -93 l27 -27 -20 -28 c-24 -35 -31 -35 -69
-7 -36 26 -36 28 -9 62 26 33 36 33 71 0z m-84 -101 l33 -28 -28 -33 -28 -33
-34 29 -35 29 23 31 c12 18 26 32 30 32 4 0 21 -12 39 -27z m-82 -104 c19 -11
34 -24 34 -27 0 -4 -9 -22 -20 -40 -20 -32 -20 -32 -47 -15 -53 33 -53 32 -31
69 11 19 22 34 25 34 3 0 21 -9 39 -21z m-63 -115 c18 -9 34 -18 36 -20 2 -2
-7 -19 -19 -38 l-21 -36 -40 20 c-21 11 -39 23 -39 26 0 14 32 64 41 64 5 0
24 -7 42 -16z m1050 -53 c24 -35 25 -41 10 -52 -13 -12 -20 -9 -44 21 -27 32
-28 35 -12 52 9 10 17 18 18 18 1 0 14 -18 28 -39z m-55 -41 c26 -35 27 -46 5
-54 -27 -11 -76 57 -56 77 13 14 30 6 51 -23z m-1053 -24 c40 -17 40 -17 20
-56 -18 -34 -23 -35 -70 -15 l-35 14 17 36 c19 40 21 40 68 21z m1000 -21 c43
-56 10 -77 -40 -25 -23 24 -26 32 -15 45 18 22 26 19 55 -20z m-52 -43 c18
-19 25 -35 21 -45 -8 -23 -14 -21 -52 14 -27 24 -31 33 -22 45 17 19 22 18 53
-14z m-40 -52 c28 -26 30 -31 17 -45 -14 -13 -19 -12 -50 13 -23 20 -31 34
-27 45 9 24 24 21 60 -13z m-958 -4 c40 -17 40 -16 21 -61 -14 -33 -16 -34
-48 -23 -47 15 -49 19 -36 61 13 42 15 43 63 23z m911 -42 c19 -15 34 -30 34
-36 0 -19 -31 -19 -65 2 -29 18 -33 25 -25 41 14 24 15 24 56 -7z m-38 -54
c34 -21 37 -27 23 -48 -6 -10 -15 -9 -44 8 -35 21 -45 39 -30 53 10 10 15 9
51 -13z m-33 -57 c37 -18 39 -21 27 -41 -7 -10 -16 -9 -48 4 -48 20 -46 18
-38 38 8 20 15 20 59 -1z m-30 -57 c36 -15 40 -22 27 -44 -7 -10 -16 -9 -48 4
-48 20 -46 18 -38 38 8 20 15 20 59 2z m-7 -67 c36 -14 21 -34 -24 -32 -44 3
-59 15 -50 38 6 17 15 16 74 -6z"/>
<path d="M3960 3548 c-5 -13 -50 -189 -100 -393 -50 -203 -99 -404 -109 -445
-11 -41 -16 -78 -13 -81 4 -4 209 -74 455 -155 362 -120 450 -146 457 -134 10
17 36 118 150 585 59 243 96 374 106 382 14 10 10 13 -22 22 -22 5 -145 37
-274 70 -486 126 -623 162 -631 167 -5 3 -13 -5 -19 -18z m106 -62 c-8 -39 -8
-39 -55 -25 -42 12 -49 26 -31 58 8 16 14 17 50 7 39 -10 41 -12 36 -40z m-34
-67 c14 -8 15 -14 7 -38 -10 -28 -12 -29 -47 -19 -49 13 -55 20 -43 52 9 23
15 26 38 20 16 -4 36 -11 45 -15z m-19 -98 c9 -9 -1 -61 -12 -61 -18 0 -81 22
-81 28 0 4 3 18 7 30 5 21 10 23 42 17 20 -4 40 -10 44 -14z m849 -13 c13 -6
15 -14 9 -31 -7 -18 -15 -22 -47 -20 -48 3 -57 13 -45 47 9 23 15 26 38 20 16
-4 36 -11 45 -16z m-870 -109 c-4 -36 -15 -41 -58 -25 -29 10 -38 18 -36 32 7
37 20 44 60 29 30 -10 36 -17 34 -36z m833 21 c23 -9 26 -14 20 -38 -4 -15 -8
-28 -10 -30 -5 -5 -85 20 -85 27 1 48 24 60 75 41z m-863 -92 c13 -6 15 -14 9
-31 -7 -18 -15 -22 -47 -20 -48 3 -57 13 -45 47 9 23 15 26 38 20 16 -4 36
-11 45 -16z m841 -4 c30 -7 34 -21 13 -49 -12 -17 -18 -18 -55 -7 -22 7 -41
15 -41 17 0 2 5 16 10 30 7 18 15 25 28 21 9 -3 29 -8 45 -12z m-860 -93 c9
-9 -1 -61 -12 -61 -26 0 -81 24 -81 35 0 37 12 47 49 40 20 -4 40 -10 44 -14z
m858 -7 c4 -2 3 -18 -3 -34 -9 -26 -14 -29 -36 -24 -45 11 -64 24 -58 41 3 8
6 19 6 25 0 10 72 4 91 -8z m-879 -92 c5 -5 5 -20 -2 -36 -8 -22 -14 -26 -33
-20 -61 19 -65 22 -59 49 4 25 8 27 45 22 21 -3 44 -10 49 -15z m821 7 c39
-11 40 -12 30 -47 -5 -21 -10 -23 -42 -17 -46 8 -55 18 -47 49 7 30 8 30 59
15z m-865 -94 c18 -5 22 -13 20 -33 -3 -24 -7 -27 -41 -26 -49 2 -61 13 -47
48 7 19 15 26 28 22 9 -2 27 -7 40 -11z m875 -14 c4 -4 3 -20 -3 -35 -8 -22
-14 -26 -33 -20 -50 15 -68 24 -64 31 2 5 7 16 11 27 5 15 13 17 44 11 20 -3
41 -10 45 -14z m-880 -91 c5 -4 6 -18 2 -30 -6 -19 -12 -21 -43 -17 -44 8 -56
19 -47 46 6 19 12 21 43 15 20 -3 41 -10 45 -14z m849 -1 c16 -9 15 -44 -3
-55 -9 -5 -89 13 -89 21 0 2 4 15 10 30 8 22 14 24 37 19 16 -4 35 -11 45 -15z
m-899 -70 c37 -10 44 -22 29 -47 -7 -9 -16 -10 -43 -1 -44 15 -51 22 -43 42 7
20 8 20 57 6z m887 -37 c0 -7 -4 -21 -10 -31 -8 -16 -14 -17 -50 -8 -41 11
-48 24 -30 56 8 16 14 17 50 8 22 -6 40 -17 40 -25z m-26 -82 c4 -5 4 -21 -1
-37 -8 -23 -15 -27 -38 -25 -53 6 -65 18 -53 52 9 28 13 30 47 24 20 -4 40
-10 45 -14z m-61 -101 c41 -11 42 -13 26 -58 -12 -33 -14 -33 -76 -10 -27 10
-26 7 -12 48 12 35 11 35 62 20z"/>
<path d="M267 2983 c-5 -9 -38 -182 -57 -299 -10 -61 -8 -96 14 -268 29 -223
58 -354 111 -506 31 -88 68 -174 81 -189 1 -2 180 77 396 174 216 98 412 186
436 196 23 10 42 21 42 25 0 4 -12 36 -26 72 -33 82 -71 250 -80 352 -5 58 -2
98 11 155 9 43 13 80 8 84 -4 4 -206 51 -448 105 -242 54 -450 100 -461 102
-12 3 -24 2 -27 -3z m102 -48 c2 -3 0 -19 -6 -37 -8 -30 -13 -33 -47 -32 -48
2 -55 11 -44 53 9 33 10 33 51 27 23 -4 43 -9 46 -11z m-27 -155 c-5 -45 -9
-48 -60 -42 l-43 4 7 37 c9 49 8 48 56 42 42 -6 43 -7 40 -41z m811 -4 c19 -5
27 -13 27 -27 0 -19 -4 -20 -42 -14 -55 9 -57 11 -51 35 3 13 12 19 22 16 9
-2 28 -7 44 -10z m-5 -66 c19 0 23 -5 20 -22 -3 -21 -8 -23 -48 -19 -54 4 -54
4 -45 31 5 16 12 20 28 16 12 -3 32 -6 45 -6z m-840 -20 c21 0 23 -4 20 -37
-3 -36 -5 -38 -38 -39 -49 -1 -60 5 -60 31 0 41 11 57 34 51 11 -3 31 -6 44
-6z m830 -50 c19 0 23 -5 20 -22 -2 -18 -10 -24 -38 -26 -46 -3 -64 9 -55 38
5 16 12 20 28 16 12 -3 32 -6 45 -6z m-810 -108 c-3 -34 -5 -35 -43 -36 -37
-1 -40 1 -43 27 -5 46 2 53 47 49 41 -4 42 -5 39 -40z m832 13 c0 -22 -4 -25
-35 -25 -19 0 -38 0 -42 0 -5 0 -9 11 -11 25 -3 24 -1 25 42 25 42 0 46 -2 46
-25z m10 -80 c0 -23 -4 -25 -44 -25 -31 0 -46 5 -50 16 -10 26 2 34 50 34 40
0 44 -2 44 -25z m-832 -46 c3 -36 2 -36 -40 -42 -23 -3 -43 -5 -44 -4 -1 1 -4
19 -8 39 -6 34 -5 37 21 41 58 9 68 4 71 -34z m840 -25 c3 -18 -3 -22 -40 -27
-23 -3 -43 -5 -44 -4 -1 1 -5 12 -8 24 -6 18 -2 22 21 26 50 8 68 3 71 -19z
m17 -65 c9 -27 7 -28 -45 -31 -40 -3 -45 0 -48 19 -3 18 3 22 30 26 18 2 38 5
45 5 6 1 15 -7 18 -19z m-845 -15 c17 -43 12 -51 -32 -58 -46 -8 -58 2 -58 46
0 20 6 28 23 31 48 9 58 7 67 -19z m864 -51 c9 -23 -4 -33 -50 -36 -33 -2 -39
1 -39 18 0 14 9 22 30 26 48 10 53 10 59 -8z m-844 -62 c21 -39 12 -58 -31
-69 -38 -10 -41 -9 -50 15 -21 55 -14 63 58 72 7 0 17 -8 23 -18z m870 -16 c0
-6 -19 -17 -41 -24 -34 -10 -43 -10 -50 1 -13 20 -6 31 32 44 35 12 59 4 59
-21z m20 -49 c9 -12 4 -19 -30 -36 -22 -11 -45 -18 -50 -15 -20 12 -10 41 18
52 38 15 48 15 62 -1z m-860 -62 c16 -42 12 -53 -27 -63 -44 -12 -54 -5 -56
40 -2 33 5 39 66 48 4 0 12 -11 17 -25z m38 -119 c19 -41 14 -51 -29 -64 -23
-7 -42 -11 -43 -9 -6 6 -26 71 -24 73 6 5 64 23 74 24 6 1 16 -10 22 -24z m47
-125 c20 -38 20 -37 -15 -55 -41 -21 -55 -19 -68 10 -18 39 -15 52 16 63 43
16 50 14 67 -18z"/>
<path d="M880 1869 c-228 -114 -419 -210 -425 -212 -12 -5 7 -41 90 -167 172
-261 432 -484 751 -645 70 -36 128 -64 129 -63 2 2 32 71 68 153 180 415 271
625 294 678 14 31 24 58 22 60 -2 1 -35 17 -74 36 -157 75 -303 196 -385 318
-19 29 -39 52 -45 52 -5 -1 -197 -95 -425 -210z m437 154 c-3 -4 -22 -17 -42
-27 -31 -17 -38 -18 -46 -5 -13 21 -12 22 29 46 31 18 39 19 51 8 7 -7 11 -17
8 -22z m31 -44 c3 -21 -59 -61 -75 -47 -20 16 -16 27 20 48 35 22 51 21 55 -1z
m39 -49 c1 -8 -11 -26 -28 -39 -28 -22 -32 -22 -46 -8 -14 14 -13 18 13 41 31
28 57 30 61 6z m43 -35 c11 -13 8 -21 -15 -45 -31 -33 -45 -36 -63 -18 -10 10
-6 19 20 45 38 37 41 38 58 18z m47 -46 c9 -9 5 -20 -15 -45 -29 -36 -41 -41
-60 -22 -9 9 -5 19 20 45 35 37 39 38 55 22z m53 -44 c9 -11 6 -21 -17 -50
-32 -40 -36 -41 -53 -20 -10 12 -8 21 14 50 30 39 38 42 56 20z m50 -40 c10
-12 8 -21 -10 -50 -24 -39 -32 -42 -49 -21 -10 11 -7 22 11 50 26 40 30 42 48
21z m59 -34 c12 -8 12 -14 2 -40 -18 -43 -34 -54 -56 -38 -17 13 -16 15 6 50
26 40 27 41 48 28z m80 -48 c8 -5 -42 -73 -54 -73 -29 0 -33 25 -8 63 21 34
26 37 41 26 9 -8 19 -14 21 -16z m-1135 -45 l19 -31 -29 -24 c-36 -29 -50 -26
-75 14 l-20 32 38 20 c21 11 40 20 43 21 3 0 14 -14 24 -32z m1191 22 c7 -12
-12 -77 -26 -85 -5 -3 -18 -1 -29 5 l-20 11 20 39 c20 39 42 51 55 30z m-1121
-134 l21 -28 -30 -24 c-39 -31 -47 -30 -73 5 l-22 30 33 25 c37 30 44 29 71
-8z m75 -97 l23 -31 -31 -31 -31 -32 -32 33 -32 32 34 30 c19 16 38 29 41 30
3 0 16 -14 28 -31z m84 -97 l27 -28 -33 -32 -33 -32 -29 30 -29 30 29 30 c16
17 32 30 35 30 3 0 18 -13 33 -28z m90 -87 l28 -25 -27 -35 c-14 -19 -29 -35
-33 -35 -4 0 -20 14 -36 30 l-29 30 29 30 c16 17 31 30 34 30 3 0 19 -12 34
-25z m109 -93 c16 -13 15 -17 -9 -48 -14 -19 -28 -34 -32 -34 -3 0 -19 11 -35
23 l-29 24 28 37 c29 38 28 38 77 -2z m88 -63 l29 -22 -26 -38 c-27 -40 -31
-41 -77 -5 -18 15 -18 16 8 51 15 19 29 35 32 35 3 0 18 -10 34 -21z m100 -66
c14 -9 27 -18 29 -19 7 -6 -41 -74 -52 -74 -7 0 -23 9 -36 19 l-24 18 22 37
c26 41 28 42 61 19z m110 -62 c24 -19 24 -20 7 -55 -19 -41 -34 -44 -68 -17
l-23 19 19 36 c22 41 30 43 65 17z m100 -46 c17 -9 30 -20 30 -26 0 -8 -27
-67 -35 -77 -6 -6 -65 29 -65 38 0 11 32 80 37 80 2 0 17 -7 33 -15z"/>
</g>
</svg>
